<?xml version="1.0" encoding="UTF-8"?>
<!DOCTYPE svg PUBLIC "-//W3C//DTD SVG 1.1//EN" "http://www.w3.org/Graphics/SVG/1.1/DTD/svg11.dtd">
<svg xmlns="http://www.w3.org/2000/svg" version="1.1" width="96px" height="96px" style="shape-rendering:geometricPrecision; text-rendering:geometricPrecision; image-rendering:optimizeQuality; fill-rule:evenodd; clip-rule:evenodd" xmlns:xlink="http://www.w3.org/1999/xlink">
<g><path style="opacity:0.987" fill="#38d1aa" d="M 40.5,1.5 C 67.8728,0.0647528 85.3728,12.3981 93,38.5C 95.7056,67.7756 82.8723,85.9423 54.5,93C 25.4238,94.5418 7.92379,81.0418 2,52.5C 1.38666,25.2873 14.22,8.28733 40.5,1.5 Z"/></g>
<g><path style="opacity:1" fill="#010403" d="M 39.5,8.5 C 62.6429,6.17715 78.1429,15.8438 86,37.5C 89.4807,60.3845 80.6474,76.2178 59.5,85C 35.6682,89.6696 19.1682,80.8363 10,58.5C 5.74803,33.3166 15.5814,16.6499 39.5,8.5 Z"/></g>
<g><path style="opacity:1" fill="#3ad6af" d="M 23.5,23.5 C 30.5,23.5 37.5,23.5 44.5,23.5C 44.5,39.5 44.5,55.5 44.5,71.5C 41.8333,71.5 39.1667,71.5 36.5,71.5C 36.5,58.5 36.5,45.5 36.5,32.5C 32.1539,32.6657 27.8206,32.499 23.5,32C 22.1834,29.0635 22.1834,26.2301 23.5,23.5 Z"/></g>
<g><path style="opacity:1" fill="#30b291" d="M 23.5,23.5 C 30.6476,22.5084 37.9809,22.175 45.5,22.5C 45.5,39.1667 45.5,55.8333 45.5,72.5C 42.2869,72.81 39.2869,72.4767 36.5,71.5C 39.1667,71.5 41.8333,71.5 44.5,71.5C 44.5,55.5 44.5,39.5 44.5,23.5C 37.5,23.5 30.5,23.5 23.5,23.5 Z"/></g>
<g><path style="opacity:1" fill="#1c6955" d="M 50.5,22.5 C 50.5,38.8333 50.5,55.1667 50.5,71.5C 57.8333,71.5 65.1667,71.5 72.5,71.5C 65.0182,72.492 57.3516,72.8254 49.5,72.5C 49.1702,55.6583 49.5035,38.9916 50.5,22.5 Z"/></g>
<g><path style="opacity:1" fill="#39d5ae" d="M 50.5,22.5 C 53.4475,22.2229 56.2809,22.5562 59,23.5C 59.4999,36.4957 59.6666,49.4957 59.5,62.5C 63.8333,62.5 68.1667,62.5 72.5,62.5C 72.5,65.5 72.5,68.5 72.5,71.5C 65.1667,71.5 57.8333,71.5 50.5,71.5C 50.5,55.1667 50.5,38.8333 50.5,22.5 Z"/></g>
</svg>
